<svg style="max-height: 500px" version="1.0" xmlns="http://www.w3.org/2000/svg" viewBox="477.4479809645609 261.457008 115.67631053517599 78.42208799999999" preserveAspectRatio="xMidYMid meet" width="115.67631053517599" height="78.42208799999999">

<g transform="translate(0.000000,391.000000) scale(0.100000,-0.100000)" fill="#000000" stroke="none">
<path d="M3074 3522 c-51 -32 -63 -82 -39 -159 l7 -23 -126 0 -126 0 0 -124 0&#10;-125 -27 15 c-36 18 -67 18 -103 -1 -39 -20 -60 -53 -60 -95 0 -84 77 -138&#10;153 -106 l37 15 0 -125 0 -124 126 0 c116 0 126 -1 119 -17 -42 -106 28 -203&#10;126 -174 55 17 82 55 77 111 -3 25 -8 53 -12 63 -8 16 2 17 118 17 l126 0 0&#10;125 c0 112 7 145 24 116 11 -17 67 -21 100 -7 45 19 66 52 66 103 0 82 -86&#10;136 -159 100 l-31 -15 0 124 0 124 -126 0 c-116 0 -126 1 -118 18 4 9 9 38 12&#10;63 3 40 0 51 -25 78 -36 42 -94 51 -139 23z"/>
<path d="M580 3157 c0 -101 -3 -252 -7 -335 l-6 -152 128 0 127 0 -7 -22 c-4&#10;-13 -9 -36 -12 -53 -16 -106 118 -166 190 -84 25 27 28 38 25 78 -3 25 -8 54&#10;-12 64 -8 16 2 17 118 17 l126 0 0 126 0 125 -22 -15 c-12 -9 -42 -16 -66 -16&#10;-37 0 -50 6 -78 34 -39 39 -45 86 -19 136 30 59 119 77 166 34 18 -17 19 -14&#10;19 114 l0 132 -335 0 -335 0 0 -183z"/>
<path d="M1680 3216 l0 -124 -40 14 c-34 12 -45 12 -73 0 -43 -18 -67 -46 -73&#10;-88 -15 -90 78 -153 169 -113 16 7 17 -2 17 -114 l0 -121 126 0 126 0 -7 -22&#10;c-4 -13 -10 -42 -12 -65 -4 -37 -1 -46 25 -72 52 -53 112 -53 164 0 27 26 29&#10;35 26 77 -3 26 -8 55 -12 65 -8 16 2 17 118 17 l126 0 0 126 0 125 -22 -15&#10;c-12 -9 -42 -16 -66 -16 -37 0 -50 6 -78 34 -28 28 -34 41 -34 78 0 50 19 82&#10;62 104 36 19 91 13 119 -12 18 -17 19 -14 19 114 l0 132 -340 0 -340 0 0 -124z"/>
<path d="M3900 3215 l0 -126 30 16 c102 53 208 -52 155 -155 -8 -16 -25 -36&#10;-37 -44 -29 -20 -97 -20 -126 0 l-22 15 0 -125 0 -126 125 0 126 0 -16 30&#10;c-31 60 -8 127 53 156 48 22 93 12 131 -32 35 -39 40 -78 16 -124 l-16 -30&#10;126 0 125 0 0 126 0 125 -22 -15 c-12 -9 -37 -16 -56 -16 -93 0 -151 93 -106&#10;170 33 56 97 74 154 45 l30 -16 0 126 0 125 -335 0 -335 0 0 -125z"/>
<path d="M5010 3214 c0 -69 -3 -124 -7 -122 -5 2 -20 10 -35 17 -37 19 -89 7&#10;-124 -30 -82 -86 21 -228 127 -175 18 9 34 16 36 16 1 0 3 -56 3 -125 l0 -125&#10;126 0 c116 0 126 -1 118 -17 -4 -10 -9 -38 -12 -63 -5 -55 22 -95 73 -109 103&#10;-28 175 68 130 172 -7 16 3 17 119 17 l126 0 0 178 c0 97 -3 248 -7 335 l-6&#10;157 -334 0 -333 0 0 -126z"/>
<path d="M571 2165 c4 -108 2 -124 -11 -119 -45 18 -74 22 -98 13 -68 -26 -95&#10;-87 -69 -152 25 -58 105 -86 153 -52 12 8 24 11 28 8 3 -3 6 -60 6 -125 l0&#10;-118 335 0 335 0 0 126 0 125 -22 -15 c-12 -9 -42 -16 -66 -16 -37 0 -50 6&#10;-78 34 -28 28 -34 42 -34 75 0 23 7 53 16 67 33 49 110 70 150 39 10 -8 22&#10;-15 27 -15 4 0 7 56 7 125 l0 125 -125 0 -126 0 16 -30 c53 -102 -57 -212&#10;-155 -154 -56 33 -74 97 -45 154 l16 30 -132 0 -131 0 3 -125z"/>
<path d="M1680 2165 c0 -124 0 -126 -21 -115 -11 6 -37 12 -58 12 -139 2 -152&#10;-200 -14 -219 30 -4 50 -1 68 11 l25 16 0 -125 0 -125 340 0 340 0 0 124 0&#10;125 28 -15 c47 -25 90 -18 128 20 29 29 34 41 34 81 0 38 -5 52 -29 76 -16 16&#10;-40 29 -53 30 -41 2 -73 -3 -82 -12 -22 -21 -26 -3 -26 116 l0 125 -129 0&#10;-128 0 18 -38 c25 -51 16 -93 -28 -132 -49 -44 -103 -42 -149 4 -28 28 -34 41&#10;-34 78 0 24 7 54 16 66 l15 22 -130 0 -131 0 0 -125z"/>
<path d="M2790 2161 l0 -129 39 21 c37 21 42 21 82 7 53 -19 82 -56 82 -107 0&#10;-93 -102 -149 -179 -99 l-25 17 3 -128 3 -128 127 -3 128 -3 -21 41 c-32 62&#10;-8 129 56 156 45 18 89 8 126 -28 23 -23 29 -38 29 -72 0 -23 -7 -51 -15 -62&#10;-8 -10 -15 -21 -15 -24 0 -3 58 -4 130 -2 l130 3 0 125 0 124 -25 -16 c-31&#10;-20 -96 -20 -128 0 -50 33 -66 111 -33 161 36 55 122 70 167 29 18 -17 19 -14&#10;19 114 l0 132 -129 0 -128 0 18 -38 c25 -51 16 -93 -28 -132 -49 -44 -103 -42&#10;-149 4 -28 28 -34 41 -34 78 0 24 7 54 16 66 l15 22 -130 0 -131 0 0 -129z"/>
<path d="M3900 2165 c0 -69 -1 -125 -2 -125 -2 0 -21 6 -42 14 -68 24 -127 -6&#10;-147 -74 -28 -93 72 -171 161 -125 l30 16 0 -126 0 -125 125 0 c69 0 125 -2&#10;125 -4 0 -2 -7 -17 -15 -32 -19 -37 -19 -58 1 -99 32 -68 124 -82 177 -27 35&#10;37 44 82 23 123 -9 18 -16 34 -16 36 0 1 57 3 128 3 l127 0 -3 111 c-4 134 -1&#10;146 30 125 49 -35 133 -6 157 53 38 91 -49 178 -145 145 -21 -8 -39 -14 -39&#10;-14 0 0 1 56 3 125 l3 125 -131 0 -131 0 16 -30 c53 -103 -52 -209 -154 -155&#10;-57 29 -76 121 -34 167 15 17 11 18 -115 18 l-132 0 0 -125z"/>
<path d="M5010 2165 l0 -125 34 16 c48 24 97 12 135 -32 46 -52 37 -128 -21&#10;-168 -29 -20 -97 -20 -126 0 l-22 15 0 -125 0 -126 126 0 125 0 -15 22 c-35&#10;50 -9 135 50 163 40 19 58 19 92 1 63 -33 87 -97 58 -154 l-17 -32 126 0 125&#10;0 0 335 0 335 -335 0 -335 0 0 -125z"/>
<path d="M1973 1426 c-55 -25 -81 -108 -48 -152 8 -10 15 -22 15 -26 0 -5 -58&#10;-8 -130 -8 l-130 0 0 -130 0 -130 33 20 c41 25 73 25 115 0 101 -62 61 -210&#10;-57 -210 -23 0 -53 7 -66 16 l-25 16 0 -126 0 -126 131 0 130 0 -15 22 c-22&#10;32 -20 94 5 129 62 88 205 37 203 -73 -1 -22 -9 -47 -19 -58 -18 -20 -17 -20&#10;113 -20 l132 0 0 126 0 125 -22 -15 c-12 -9 -42 -16 -66 -16 -37 0 -50 6 -78&#10;34 -28 28 -34 42 -34 76 0 98 113 156 182 93 17 -15 18 -11 18 115 l0 132&#10;-125 0 c-69 0 -125 2 -125 4 0 2 7 20 15 39 39 95 -57 185 -152 143z"/>
<path d="M3083 1425 c-45 -19 -66 -56 -61 -107 3 -24 8 -51 12 -60 8 -17 -2&#10;-18 -118 -18 l-126 0 0 -125 c0 -69 -2 -125 -4 -125 -2 0 -17 7 -32 15 -40 21&#10;-65 19 -105 -8 -112 -75 -18 -253 102 -193 18 9 34 16 36 16 1 0 3 -59 3 -132&#10;l0 -131 248 6 c136 4 288 7 337 7 l90 0 -3 125 c-2 69 -1 125 1 125 3 0 18 -7&#10;33 -15 36 -19 56 -19 99 -1 92 39 82 178 -15 207 -35 11 -46 10 -76 -4 -19 -9&#10;-37 -17 -40 -17 -3 0 -4 56 -2 125 l4 125 -128 0 -129 0 16 30 c31 60 8 131&#10;-50 156 -42 17 -51 17 -92 -1z"/>
<path d="M580 1115 l0 -126 32 17 c90 46 197 -53 158 -147 -7 -16 -24 -39 -38&#10;-49 -30 -24 -98 -27 -130 -4 l-22 15 0 -125 0 -126 125 0 c69 0 125 -2 125 -4&#10;0 -2 -7 -17 -15 -32 -59 -113 91 -219 177 -126 34 37 42 74 23 118 -8 20 -15&#10;38 -15 40 0 2 56 4 125 4 l125 0 0 124 0 124 31 -15 c73 -37 159 18 159 101 0&#10;53 -27 92 -74 105 -36 9 -83 4 -92 -10 -17 -29 -24 4 -24 116 l0 125 -130 0&#10;-131 0 22 -29 c17 -24 21 -38 16 -73 -8 -61 -51 -98 -113 -98 -39 0 -51 5 -80&#10;34 -39 39 -45 86 -19 136 l16 30 -126 0 -125 0 0 -125z"/>
<path d="M3900 1115 l0 -126 30 16 c82 42 170 -14 170 -111 0 -28 -8 -44 -34&#10;-70 -28 -28 -41 -34 -78 -34 -24 0 -54 7 -66 16 l-22 15 0 -125 0 -126 125 0&#10;c69 0 125 -2 125 -4 0 -2 -7 -17 -15 -32 -19 -37 -19 -58 2 -101 31 -67 123&#10;-80 177 -27 34 35 43 84 22 125 -9 18 -16 34 -16 36 0 1 56 3 125 3 l125 0 0&#10;126 0 125 -22 -15 c-29 -20 -97 -20 -126 0 -58 40 -67 116 -21 168 38 44 87&#10;56 135 32 l34 -16 0 125 0 125 -335 0 -335 0 0 -125z"/>
<path d="M5010 1115 c0 -69 -2 -125 -3 -125 -2 0 -18 7 -36 16 -106 53 -209&#10;-89 -127 -175 37 -39 84 -48 127 -27 18 9 34 16 36 16 1 0 3 -56 3 -125 l0&#10;-125 125 0 126 0 -16 30 c-29 57 -11 121 45 154 54 31 120 12 154 -44 20 -35&#10;20 -72 1 -110 l-16 -30 131 0 131 0 -7 125 c-4 69 -5 125 -2 125 3 0 19 -7 37&#10;-16 92 -46 191 55 146 149 -17 35 -65 67 -102 67 -10 0 -31 -7 -47 -15 -15 -8&#10;-30 -15 -32 -15 -2 0 -4 56 -4 125 l0 125 -131 0 -130 0 20 -26 c53 -67 -5&#10;-174 -94 -174 -89 0 -147 107 -94 174 l20 26 -130 0 -131 0 0 -125z"/>
</g>
</svg>