<?xml version="1.0" standalone="no"?>
<!DOCTYPE svg PUBLIC "-//W3C//DTD SVG 20010904//EN"
 "http://www.w3.org/TR/2001/REC-SVG-20010904/DTD/svg10.dtd">
<svg version="1.0" xmlns="http://www.w3.org/2000/svg"
 width="189.000000pt" height="140.000000pt" viewBox="0 0 189.000000 140.000000"
 preserveAspectRatio="xMidYMid meet">

<g transform="translate(0.000000,140.000000) scale(0.100000,-0.100000)"
fill="#000000" stroke="none">
<path d="M430 960 l0 -440 160 -107 c88 -58 160 -109 160 -113 0 -4 -72 -55
-160 -113 l-160 -107 0 -40 0 -40 500 0 500 0 0 700 0 700 -500 0 -500 0 0
-440z"/>
<path d="M30 1100 l0 -40 150 0 150 0 0 40 0 40 -150 0 -150 0 0 -40z"/>
<path d="M1530 700 l0 -40 150 0 150 0 0 40 0 40 -150 0 -150 0 0 -40z"/>
<path d="M430 300 c0 -66 2 -120 5 -120 10 0 175 113 175 120 0 7 -165 120
-175 120 -3 0 -5 -54 -5 -120z"/>
<path d="M30 300 l0 -40 150 0 150 0 0 40 0 40 -150 0 -150 0 0 -40z"/>
</g>
</svg>
